HIERARCHY
ROOT Root
{
  OFFSET 0.0 0.0 0.0
  CHANNELS 6 Xposition Yposition Zposition Zrotation Yrotation Xrotation
  JOINT Hips
  {
    OFFSET 0.0 100.0 0.0
    CHANNELS 6 Xposition Yposition Zposition Zrotation Yrotation Xrotation
    JOINT Spine1
    {
      OFFSET 5.003913 -0.037094 -0.013727
      CHANNELS 3 Zrotation Yrotation Xrotation
      JOINT Spine2
      {
        OFFSET 7.125363 -1e-06 0.0
        CHANNELS 3 Zrotation Yrotation Xrotation
        JOINT Chest
        {
          OFFSET 7.594027 1e-06 0.0
          CHANNELS 3 Zrotation Yrotation Xrotation
          JOINT Neck1
          {
            OFFSET 26.313086 -0.460272 -0.181672
            CHANNELS 3 Zrotation Yrotation Xrotation
            JOINT Neck2
            {
              OFFSET 8.045911 0.0 0.0
              CHANNELS 3 Zrotation Yrotation Xrotation
              JOINT Head
              {
                OFFSET 6.432774 0.0 0.0
                CHANNELS 3 Zrotation Yrotation Xrotation
                JOINT HeadEnd
                {
                  OFFSET 16.169773 0.06451 0.00362
                  CHANNELS 3 Zrotation Yrotation Xrotation
                }
                JOINT Jaw
                {
                  OFFSET 0.108741 3.12938 0.002639
                  CHANNELS 3 Zrotation Yrotation Xrotation
                }
                JOINT LeftEye
                {
                  OFFSET 4.45173 8.166359 3.206392
                  CHANNELS 3 Zrotation Yrotation Xrotation
                }
                JOINT RightEye
                {
                  OFFSET 4.436895 8.135758 -3.222429
                  CHANNELS 3 Zrotation Yrotation Xrotation
                }
              }
            }
          }
          JOINT LeftShoulder
          {
            OFFSET 23.218927 5.195579 1.621656
            CHANNELS 3 Zrotation Yrotation Xrotation
            JOINT LeftArm
            {
              OFFSET 15.902118 2e-06 -2e-06
              CHANNELS 3 Zrotation Yrotation Xrotation
              JOINT LeftForeArm
              {
                OFFSET 28.739307 0.0 -1e-06
                CHANNELS 3 Zrotation Yrotation Xrotation
                JOINT LeftHand
                {
                  OFFSET 27.093981 -4e-06 0.0
                  CHANNELS 3 Zrotation Yrotation Xrotation
                  JOINT LeftHandThumb1
                  {
                    OFFSET 2.276781 3.380274 0.83384
                    CHANNELS 3 Zrotation Yrotation Xrotation
                    JOINT LeftHandThumb2
                    {
                      OFFSET 4.705309 -1e-06 -1e-06
                      CHANNELS 3 Zrotation Yrotation Xrotation
                      JOINT LeftHandThumb3
                      {
                        OFFSET 2.798515 0.0 3e-06
                        CHANNELS 3 Zrotation Yrotation Xrotation
                        JOINT LeftHandThumbEnd
                        {
                          OFFSET 3.180793 4e-06 -4e-06
                          CHANNELS 3 Zrotation Yrotation Xrotation
                        }
                      }
                    }
                  }
                  JOINT LeftHandIndex1
                  {
                    OFFSET 3.247786 2.352677 0.137192
                    CHANNELS 3 Zrotation Yrotation Xrotation
                    JOINT LeftHandIndex2
                    {
                      OFFSET 6.367095 1e-06 0.0
                      CHANNELS 3 Zrotation Yrotation Xrotation
                      JOINT LeftHandIndex3
                      {
                        OFFSET 3.662364 0.0 0.0
                        CHANNELS 3 Zrotation Yrotation Xrotation
                        JOINT LeftHandIndex4
                        {
                          OFFSET 2.329242 4e-06 -4e-06
                          CHANNELS 3 Zrotation Yrotation Xrotation
                          JOINT LeftHandIndexEnd
                          {
                            OFFSET 2.767823 1e-06 0.0
                            CHANNELS 3 Zrotation Yrotation Xrotation
                          }
                        }
                      }
                    }
                  }
                  JOINT LeftHandMiddle1
                  {
                    OFFSET 3.163612 0.945023 -0.406112
                    CHANNELS 3 Zrotation Yrotation Xrotation
                    JOINT LeftHandMiddle2
                    {
                      OFFSET 6.276789 3e-06 0.0
                      CHANNELS 3 Zrotation Yrotation Xrotation
                      JOINT LeftHandMiddle3
                      {
                        OFFSET 4.35652 -1e-06 4e-06
                        CHANNELS 3 Zrotation Yrotation Xrotation
                        JOINT LeftHandMiddle4
                        {
                          OFFSET 2.996877 0.0 8e-06
                          CHANNELS 3 Zrotation Yrotation Xrotation
                          JOINT LeftHandMiddleEnd
                          {
                            OFFSET 2.323256 3e-06 -4e-06
                            CHANNELS 3 Zrotation Yrotation Xrotation
                          }
                        }
                      }
                    }
                  }
                  JOINT LeftHandRing1
                  {
                    OFFSET 2.882606 -0.309162 0.107445
                    CHANNELS 3 Zrotation Yrotation Xrotation
                    JOINT LeftHandRing2
                    {
                      OFFSET 6.033198 0.0 4e-06
                      CHANNELS 3 Zrotation Yrotation Xrotation
                      JOINT LeftHandRing3
                      {
                        OFFSET 4.350578 3e-06 0.0
                        CHANNELS 3 Zrotation Yrotation Xrotation
                        JOINT LeftHandRing4
                        {
                          OFFSET 2.651321 2e-06 -7e-06
                          CHANNELS 3 Zrotation Yrotation Xrotation
                          JOINT LeftHandRingEnd
                          {
                            OFFSET 1.937663 1e-06 -4e-06
                            CHANNELS 3 Zrotation Yrotation Xrotation
                          }
                        }
                      }
                    }
                  }
                  JOINT LeftHandPinky1
                  {
                    OFFSET 2.865315 -1.525436 0.575687
                    CHANNELS 3 Zrotation Yrotation Xrotation
                    JOINT LeftHandPinky2
                    {
                      OFFSET 5.54936 1e-06 -8e-06
                      CHANNELS 3 Zrotation Yrotation Xrotation
                      JOINT LeftHandPinky3
                      {
                        OFFSET 3.070974 0.0 -4e-06
                        CHANNELS 3 Zrotation Yrotation Xrotation
                        JOINT LeftHandPinky4
                        {
                          OFFSET 1.549672 1e-06 0.0
                          CHANNELS 3 Zrotation Yrotation Xrotation
                          JOINT LeftHandPinkyEnd
                          {
                            OFFSET 1.952123 0.0 0.0
                            CHANNELS 3 Zrotation Yrotation Xrotation
                          }
                        }
                      }
                    }
                  }
                }
              }
            }
          }
          JOINT RightShoulder
          {
            OFFSET 23.161716 5.296122 -1.380114
            CHANNELS 3 Zrotation Yrotation Xrotation
            JOINT RightArm
            {
              OFFSET -16.027195 -2e-06 1.1e-05
              CHANNELS 3 Zrotation Yrotation Xrotation
              JOINT RightForeArm
              {
                OFFSET -28.736639 4e-06 2e-06
                CHANNELS 3 Zrotation Yrotation Xrotation
                JOINT RightHand
                {
                  OFFSET -27.133619 6e-06 0.0
                  CHANNELS 3 Zrotation Yrotation Xrotation
                  JOINT RightHandThumb1
                  {
                    OFFSET -2.274328 -3.351035 -0.83067
                    CHANNELS 3 Zrotation Yrotation Xrotation
                    JOINT RightHandThumb2
                    {
                      OFFSET -4.703594 -3e-06 2e-06
                      CHANNELS 3 Zrotation Yrotation Xrotation
                      JOINT RightHandThumb3
                      {
                        OFFSET -2.794935 -4e-06 -3e-06
                        CHANNELS 3 Zrotation Yrotation Xrotation
                        JOINT RightHandThumbEnd
                        {
                          OFFSET -3.183852 4e-06 1e-06
                          CHANNELS 3 Zrotation Yrotation Xrotation
                        }
                      }
                    }
                  }
                  JOINT RightHandIndex1
                  {
                    OFFSET -3.253496 -2.33755 -0.127667
                    CHANNELS 3 Zrotation Yrotation Xrotation
                    JOINT RightHandIndex2
                    {
                      OFFSET -6.344434 0.0 0.0
                      CHANNELS 3 Zrotation Yrotation Xrotation
                      JOINT RightHandIndex3
                      {
                        OFFSET -3.654871 0.0 -8e-06
                        CHANNELS 3 Zrotation Yrotation Xrotation
                        JOINT RightHandIndex4
                        {
                          OFFSET -2.327586 -1e-06 0.0
                          CHANNELS 3 Zrotation Yrotation Xrotation
                          JOINT RightHandIndexEnd
                          {
                            OFFSET -2.770001 3e-06 8e-06
                            CHANNELS 3 Zrotation Yrotation Xrotation
                          }
                        }
                      }
                    }
                  }
                  JOINT RightHandMiddle1
                  {
                    OFFSET -3.168223 -0.944764 0.411762
                    CHANNELS 3 Zrotation Yrotation Xrotation
                    JOINT RightHandMiddle2
                    {
                      OFFSET -6.266691 -1e-06 -4e-06
                      CHANNELS 3 Zrotation Yrotation Xrotation
                      JOINT RightHandMiddle3
                      {
                        OFFSET -4.348901 0.0 0.0
                        CHANNELS 3 Zrotation Yrotation Xrotation
                        JOINT RightHandMiddle4
                        {
                          OFFSET -3.00024 2e-06 -4e-06
                          CHANNELS 3 Zrotation Yrotation Xrotation
                          JOINT RightHandMiddleEnd
                          {
                            OFFSET -2.321477 -4e-06 -4e-06
                            CHANNELS 3 Zrotation Yrotation Xrotation
                          }
                        }
                      }
                    }
                  }
                  JOINT RightHandRing1
                  {
                    OFFSET -2.885654 0.293261 -0.119232
                    CHANNELS 3 Zrotation Yrotation Xrotation
                    JOINT RightHandRing2
                    {
                      OFFSET -6.032835 -1e-06 -4e-06
                      CHANNELS 3 Zrotation Yrotation Xrotation
                      JOINT RightHandRing3
                      {
                        OFFSET -4.33881 0.0 -4e-06
                        CHANNELS 3 Zrotation Yrotation Xrotation
                        JOINT RightHandRing4
                        {
                          OFFSET -2.654903 -4e-06 -4e-06
                          CHANNELS 3 Zrotation Yrotation Xrotation
                          JOINT RightHandRingEnd
                          {
                            OFFSET -1.935122 0.0 4e-06
                            CHANNELS 3 Zrotation Yrotation Xrotation
                          }
                        }
                      }
                    }
                  }
                  JOINT RightHandPinky1
                  {
                    OFFSET -2.866241 1.503904 -0.60527
                    CHANNELS 3 Zrotation Yrotation Xrotation
                    JOINT RightHandPinky2
                    {
                      OFFSET -5.553177 -2e-06 0.0
                      CHANNELS 3 Zrotation Yrotation Xrotation
                      JOINT RightHandPinky3
                      {
                        OFFSET -3.062664 -1e-06 -4e-06
                        CHANNELS 3 Zrotation Yrotation Xrotation
                        JOINT RightHandPinky4
                        {
                          OFFSET -1.546529 2e-06 4e-06
                          CHANNELS 3 Zrotation Yrotation Xrotation
                          JOINT RightHandPinkyEnd
                          {
                            OFFSET -1.952341 0.0 -4e-06
                            CHANNELS 3 Zrotation Yrotation Xrotation
                          }
                        }
                      }
                    }
                  }
                }
              }
            }
          }
        }
      }
    }
    JOINT LeftLeg
    {
      OFFSET -8.443107 2.567604 10.043214
      CHANNELS 3 Zrotation Yrotation Xrotation
      JOINT LeftShin
      {
        OFFSET 43.229198 1e-06 -1e-06
        CHANNELS 3 Zrotation Yrotation Xrotation
        JOINT LeftFoot
        {
          OFFSET 42.298611 1e-06 1e-06
          CHANNELS 3 Zrotation Yrotation Xrotation
          JOINT LeftToeBase
          {
            OFFSET 14.165858 1e-06 0.0
            CHANNELS 3 Zrotation Yrotation Xrotation
            JOINT LeftToeEnd
            {
              OFFSET 6.7141 -0.234461 0.0
              CHANNELS 3 Zrotation Yrotation Xrotation
            }
          }
        }
      }
    }
    JOINT RightLeg
    {
      OFFSET -8.303923 2.592729 -10.047278
      CHANNELS 3 Zrotation Yrotation Xrotation
      JOINT RightShin
      {
        OFFSET -43.369682 0.0 1e-06
        CHANNELS 3 Zrotation Yrotation Xrotation
        JOINT RightFoot
        {
          OFFSET -42.260784 4e-06 2e-06
          CHANNELS 3 Zrotation Yrotation Xrotation
          JOINT RightToeBase
          {
            OFFSET -14.222245 -2e-06 -1e-06
            CHANNELS 3 Zrotation Yrotation Xrotation
            JOINT RightToeEnd
            {
              OFFSET -6.660062 0.232574 -2e-06
              CHANNELS 3 Zrotation Yrotation Xrotation
            }
          }
        }
      }
    }
  }
}
MOTION
Frames: 4
Frame Time: 0.03333333333333333
0.0 0.0 0.0 0.0 -0.0 0.0 -14.05654 4.686797 -93.496292 140.455429 87.803047 144.172882 2.878132 -3.961082 1.064459 -11.065042 -0.946759 -1.191809 9.89519 -3.891258 -5.368043 11.355503 6.762442 4.847778 -3.482817 -0.038612 -0.606806 -48.659218 -1.701374 -2.280198 5e-06 0.0 -0.0 -0.087563 -0.020867 0.0354 0.425119 -0.465236 0.349964 0.208531 0.45765 -0.228513 -21.201134 -67.820824 33.742241 3.489315 -70.956436 32.487675 20.970522 0.980913 -1.683362 -16.882854 14.111778 -47.050259 17.636627 -26.322733 52.411194 -19.466665 -14.395598 29.410389 -2e-06 -8.774822 -2e-06 15.020484 -17.049723 6.28443 -0.609776 -1.795655 -3.889328 -4.807089 -11.046811 -2.93785 5e-06 -20.976017 2e-06 -5.019969 -25.03356 -4.031882 6e-06 1e-06 1e-06 -10.634534 -5.686967 -3.565588 10.573275 -17.922951 -3.113901 2e-06 -13.821208 2e-06 -0.501777 -31.181505 -4.027013 -10.800596 -58.426376 6.624547 -13.982715 -7.150198 -2.87504 13.772731 -8.401491 -3.218241 0.347733 -34.211552 0.771656 -0.963029 -17.73337 2.62102 -1e-06 -1e-06 0.0 -17.346422 -20.095221 -4.201779 21.757561 -1.638374 3.866428 2e-06 -6.338821 1e-06 -1.69759 -22.591743 -6.194006 1e-06 -5e-06 -2e-06 164.322937 -61.198605 15.87776 -18.913145 -44.332855 -14.930906 43.354416 0.567759 0.980519 2.75721 46.583008 22.834578 22.182121 -20.375895 49.933323 -16.701811 -16.743528 28.476528 -1e-06 -12.6906 -1e-06 16.787685 -16.776072 1.443237 -0.10592 -1.513855 -4.275882 -5.039042 -5.612874 -2.953556 4e-06 -11.02052 -2e-06 -6.111297 -15.895332 -3.840472 0.0 0.0 1e-06 -10.283371 -5.680289 -4.341837 11.028295 -11.302409 -2.372633 -1.384268 -14.238583 -6.320124 -0.625437 -26.924191 -3.827605 -4.954552 -49.643257 -3.320541 -13.708526 -7.363477 -3.72094 18.14115 -14.052739 -3.242674 7e-06 -18.78727 -4e-06 -0.429711 -8.456044 2.555505 -0.0 -0.0 -0.0 -15.923536 -20.094486 -5.473585 30.41921 -7.190825 1.735927 1e-06 -8.162924 0.0 -1.861902 -22.861469 -6.167942 -1e-06 -3e-06 -1e-06 168.784134 -18.302889 -37.513866 24.390728 2.97148 -6.461365 -38.752304 -46.103619 -21.733936 -9.603931 1.30199 1.287327 -0.999999 0.0 0.0 -1.933296 -18.236853 -26.591093 5.720533 -1.154499 -3.324619 -54.788918 -15.314734 -28.05961 -8.418771 0.522125 1.146263 -1.000003 -2e-06 -0.0 
0.0 0.0 0.0 0.0 -0.0 0.0 -14.047506 4.697472 -93.496857 139.549057 87.809113 143.246704 2.863069 -3.93481 1.060835 -11.064656 -0.938909 -1.20784 9.878044 -3.885567 -5.390955 11.305367 6.669213 4.856266 -3.486862 -0.024134 -0.579074 -48.639912 -1.634755 -2.337242 5e-06 0.0 0.0 -0.0873 -0.020572 0.034901 0.387965 -0.462252 0.345302 0.186445 0.454186 -0.224535 -21.268885 -67.825539 33.799503 3.485812 -70.949028 32.450611 20.937243 0.874697 -1.681296 -16.836126 14.138451 -46.758282 17.636625 -26.322729 52.41119 -19.466665 -14.395598 29.410385 -1e-06 -8.774821 -2e-06 15.054835 -17.04483 6.282731 -0.609777 -1.795655 -3.889328 -4.807088 -11.046812 -2.937848 4e-06 -20.976017 1e-06 -5.019969 -25.03356 -4.031884 6e-06 0.0 -1e-06 -10.634533 -5.686973 -3.565586 10.573275 -17.922945 -3.113901 3e-06 -13.821209 0.0 -0.501775 -31.181505 -4.027017 -10.796281 -58.42968 6.614714 -13.982712 -7.150196 -2.875041 13.772731 -8.401491 -3.218241 0.347734 -34.211552 0.771652 -0.963029 -17.733368 2.62102 -0.0 1e-06 0.0 -17.34642 -20.095217 -4.201779 21.757559 -1.638373 3.866427 1e-06 -6.338825 1e-06 -1.69759 -22.591749 -6.194007 1e-06 -4e-06 -2e-06 164.192612 -61.177296 15.910245 -18.78463 -44.348114 -14.986453 43.347088 0.533133 0.965104 2.774904 46.664192 22.869589 22.182119 -20.375898 49.933319 -16.701811 -16.74353 28.476528 -1e-06 -12.6906 -0.0 16.776026 -16.812883 1.463039 -0.10592 -1.513855 -4.275881 -5.039041 -5.612871 -2.953556 3e-06 -11.020523 -2e-06 -6.111299 -15.895334 -3.84047 0.0 0.0 -0.0 -10.283371 -5.680288 -4.341839 11.028296 -11.302406 -2.372633 -1.384269 -14.23858 -6.32012 -0.62544 -26.924189 -3.8276 -4.927431 -49.620064 -3.333763 -13.708527 -7.363478 -3.720938 18.14115 -14.052739 -3.242673 4e-06 -18.787273 -2e-06 -0.429711 -8.456046 2.555504 -0.0 -0.0 0.0 -15.923538 -20.094482 -5.473584 30.419214 -7.190827 1.735928 1e-06 -8.162925 1e-06 -1.861901 -22.861473 -6.167941 -1e-06 -3e-06 -3e-06 168.751877 -18.336817 -37.443226 24.426582 2.991838 -6.441661 -38.811569 -46.215675 -21.918283 -9.596372 1.295846 1.27577 -0.999998 0.0 -1e-06 -1.897254 -18.177788 -26.573761 5.610713 -1.177401 -3.330069 -54.675056 -15.319133 -28.110151 -8.416846 0.509096 1.139583 -1.000002 -1e-06 0.0 
0.0 0.0 0.0 0.0 -0.0 0.0 -14.050785 4.692781 -93.47744 139.172623 87.817886 142.854126 2.857757 -3.921827 1.054007 -11.052091 -0.939621 -1.231585 9.849086 -3.867937 -5.412868 11.269789 6.571325 4.831056 -3.486391 0.057315 -0.537382 -48.633179 -1.550092 -2.401716 5e-06 0.0 -0.0 -0.086054 -0.01813 0.035009 0.351555 -0.45939 0.341987 0.168309 0.454571 -0.220417 -21.179533 -67.815361 33.69672 3.362839 -71.017586 32.546371 20.891634 0.80727 -1.690609 -16.842556 14.181326 -46.505104 17.63662 -26.322729 52.411194 -19.466658 -14.395596 29.410385 0.0 -8.774819 -2e-06 15.111387 -17.050846 6.280471 -0.609776 -1.795654 -3.889325 -4.807088 -11.046811 -2.93785 2e-06 -20.976015 2e-06 -5.019971 -25.033556 -4.031882 6e-06 0.0 1e-06 -10.634533 -5.686971 -3.565586 10.573271 -17.922947 -3.113902 1e-06 -13.821209 1e-06 -0.501778 -31.181505 -4.027018 -10.779456 -58.449509 6.593711 -13.982712 -7.150198 -2.87504 13.772726 -8.401489 -3.218241 0.34773 -34.211552 0.771653 -0.963029 -17.73337 2.621017 -1e-06 0.0 1e-06 -17.346416 -20.095219 -4.201778 21.757555 -1.638373 3.866427 1e-06 -6.338822 1e-06 -1.697591 -22.591745 -6.194005 -0.0 -4e-06 -3e-06 164.111893 -61.180504 15.910075 -18.672674 -44.344482 -15.038296 43.355713 0.459649 0.966877 2.756737 46.816315 22.93306 22.182117 -20.375891 49.933308 -16.701807 -16.743526 28.476524 -2e-06 -12.690598 -1e-06 16.778851 -16.860262 1.45456 -0.105921 -1.51386 -4.27588 -5.039039 -5.612872 -2.953556 4e-06 -11.020521 -3e-06 -6.111295 -15.89533 -3.840472 0.0 0.0 1e-06 -10.283371 -5.680288 -4.341837 11.028292 -11.302404 -2.372634 -1.384268 -14.238579 -6.32012 -0.625436 -26.924183 -3.827601 -4.890428 -49.550739 -3.369344 -13.708524 -7.363475 -3.72094 18.141146 -14.052739 -3.242674 7e-06 -18.787268 -3e-06 -0.429711 -8.456042 2.555504 -0.0 -0.0 0.0 -15.923532 -20.094482 -5.473585 30.419207 -7.190825 1.735925 1e-06 -8.162921 1e-06 -1.861898 -22.861465 -6.167942 0.0 -3e-06 -1e-06 168.696701 -18.405809 -37.389549 24.55501 3.022846 -6.462557 -38.938068 -46.267979 -22.041878 -9.623099 1.282485 1.256876 -0.999998 0.0 -1e-06 -2.178756 -18.279118 -26.443966 6.015223 -1.22424 -3.368632 -54.764851 -15.333814 -28.16968 -8.378615 0.488086 1.130344 -1.000002 -1e-06 -0.0 
0.0 0.0 0.0 0.0 -0.0 0.0 -14.047283 4.653793 -93.464668 139.02597 87.838432 142.715027 2.900671 -3.939304 1.030474 -11.025224 -0.958772 -1.2836 9.774337 -3.827066 -5.39824 11.203064 6.509219 4.741109 -3.457125 0.146551 -0.435835 -48.672825 -1.408067 -2.55411 4e-06 0.0 0.0 -0.077014 -0.007143 0.035214 0.299708 -0.441564 0.334124 0.141245 0.457613 -0.212241 -21.163351 -67.743744 33.491722 2.784394 -71.077682 33.134029 20.847116 0.71247 -1.794048 -16.761648 14.284762 -46.111023 17.636627 -26.322729 52.41119 -19.46666 -14.395597 29.410389 -1e-06 -8.774822 -2e-06 15.201403 -16.995033 6.223796 -0.609776 -1.795654 -3.889327 -4.807091 -11.046811 -2.93785 2e-06 -20.976019 2e-06 -5.019974 -25.03356 -4.031882 6e-06 -1e-06 1e-06 -10.634535 -5.68697 -3.565588 10.573272 -17.922951 -3.113899 2e-06 -13.821209 1e-06 -0.501777 -31.181505 -4.027018 -10.615718 -58.338913 6.528506 -13.982714 -7.150198 -2.875042 13.772729 -8.401491 -3.218241 0.347732 -34.211544 0.771652 -0.96303 -17.73337 2.621018 -1e-06 1e-06 1e-06 -17.34642 -20.095217 -4.201782 21.757559 -1.638373 3.866428 1e-06 -6.338822 1e-06 -1.69759 -22.591745 -6.194006 -0.0 -4e-06 -3e-06 164.115936 -61.16024 15.84547 -18.746454 -44.41975 -14.918431 43.573238 0.40166 0.933526 2.614766 46.993156 23.215729 22.182119 -20.375898 49.933319 -16.701811 -16.74353 28.476528 -1e-06 -12.690601 1e-06 16.922449 -16.85442 1.395741 -0.10592 -1.513857 -4.275881 -5.039042 -5.612872 -2.953556 4e-06 -11.020523 -2e-06 -6.111298 -15.895336 -3.84047 0.0 0.0 -0.0 -10.283373 -5.68029 -4.341838 11.028296 -11.302407 -2.372633 -1.384269 -14.238581 -6.320121 -0.625439 -26.924191 -3.827599 -4.952298 -49.548138 -3.376387 -13.708526 -7.363478 -3.720938 18.141151 -14.05274 -3.242674 7e-06 -18.78727 -3e-06 -0.429711 -8.456043 2.555505 0.0 -0.0 0.0 -15.923539 -20.094484 -5.473582 30.419222 -7.190829 1.735925 1e-06 -8.162925 2e-06 -1.861902 -22.861473 -6.167942 -1e-06 -3e-06 -1e-06 168.642532 -18.461782 -37.410053 24.652218 3.028406 -6.434669 -38.795654 -46.168911 -22.044867 -9.883388 1.288749 1.241161 -0.999999 1e-06 -1e-06 -2.347677 -18.321033 -26.448997 6.274176 -1.302192 -3.383092 -54.912567 -15.559468 -28.242495 -8.320388 0.480054 1.153842 -1.000002 -1e-06 -0.0 
